<?xml version="1.0" standalone="no"?>
<!DOCTYPE svg PUBLIC "-//W3C//DTD SVG 20010904//EN"
 "http://www.w3.org/TR/2001/REC-SVG-20010904/DTD/svg10.dtd">
<svg version="1.0" xmlns="http://www.w3.org/2000/svg"
 width="530.000000pt" height="530.000000pt" viewBox="0 0 530.000000 530.000000"
 preserveAspectRatio="xMidYMid meet">

<g transform="translate(0.000000,530.000000) scale(0.100000,-0.100000)"
fill="#000000" stroke="none">
<path d="M758 4732 l-198 -2 0 -2074 c0 -1882 1 -2074 16 -2080 20 -8 4118 -8
4138 0 15 6 16 198 16 2080 l0 2074 -192 1 c-394 3 -3590 4 -3780 1z m3913
-49 l-31 -38 0 -1998 0 -1998 -2005 3 -2005 3 0 2003 0 2004 -21 29 -20 29
2056 0 2056 0 -30 -37z"/>
</g>
</svg>
