<?xml version="1.0" ?><svg style="enable-background:new 0 0 365 365;" version="1.1" viewBox="0 0 365 365" xml:space="preserve" xmlns="http://www.w3.org/2000/svg" xmlns:xlink="http://www.w3.org/1999/xlink"><g id="logo"><path d="M35.994,365h293.013C348.885,365,365,348.885,365,329.006V35.994C365,16.115,348.885,0,329.006,0   H35.994C16.115,0,0,16.115,0,35.994v293.013C0,348.885,16.115,365,35.994,365z" style="fill:#FFCC00;"/><path d="M279.627,314.961c-4.932,0-10.362-1.407-16.142-4.182c-5.504-2.643-6.213-3.651-9.483-13.492l-0.063-0.188l-0.087-0.178   c-4.204-8.64-11.012-15.828-20.813-21.975c-6.758-4.24-6.119-12.637-3.494-17.345c2.607-3.514,6.982-4.582,11.617-5.446   c1.76-0.328,3.528-0.495,5.258-0.495c7.221,0,14.288,2.841,21.605,8.684c13.589,10.848,23.389,25.5,29.96,44.794   c0.328,0.964,0.401,1.717-1.495,3.333c-1.489,1.269-3.632,2.682-5.731,3.782C287.327,314.05,283.581,314.961,279.627,314.961   C279.627,314.961,279.627,314.961,279.627,314.961z M329.982,347.997c7.682-6.081,12.603-14.21,16.776-22.09   c9.458-17.854,11.142-35.886,5.006-53.594c-4.079-11.771-11.177-22.778-22.337-34.643c-14.758-15.689-31.813-28.587-48.307-41.061   c-5.714-4.32-11.439-8.626-17.165-12.933c-17.425-13.103-35.442-26.652-52.822-40.443c-12.519-9.935-23.402-21.852-32.348-35.421   c-5.271-7.996-6.438-15.927-3.565-24.246c1.662-4.812,2.812-8.841,3.619-12.683c1.84-8.759-1.131-17.478-7.277-21.917   c-14.727,13.332-24.34,25.001-31.167,37.83c-12.494,23.477-9.513,44.656,8.86,62.948c8.45,8.413,17.077,15.246,25.642,20.311   c13.225,7.819,27.104,15.111,40.526,22.164c5.564,2.924,11.317,5.946,16.953,8.97c5.333,2.86,10.796,5.716,16.078,8.478   c12.043,6.295,24.496,12.805,36.393,19.878c22.235,13.222,34.15,30.06,36.425,51.478c1.432,13.493-2.455,23.54-11.882,30.716   c-5.313,4.045-11.143,5.107-15.826,5.962l-0.866,0.159c-2.933,0.543-6.93,0.842-11.255,0.842c-7.515,0-15.024-0.874-20.089-2.337   c-3.598-1.039-12.629-3.854-18.77-7.526c-19.884-11.894-27.508-29.102-22.657-51.161c0.438-1.941,0.83-3.528,1.372-5.505   c-2.041,0.376-3.503,0.836-5.187,1.366l-1.162,0.363c-6.943,2.14-10.722,8.065-14.722,14.34l-0.254,0.398   c-1.48,2.321-2.357,5.409-2.234,7.867c0.578,11.472,4.948,22.596,13.361,34.008c21.789,29.56,49.392,44.889,84.385,46.862   c1.513,0.085,3.005,0.129,4.437,0.129C312.068,357.507,321.9,354.396,329.982,347.997z M228.781,353.67   c3.411,0,6.757-0.249,10.002-0.743c-10.363-7.049-19.575-16.288-28.776-28.827l-0.71-0.968   c-8.343-11.37-16.97-23.128-26.307-33.871c-8.735-10.048-18.97-15.143-30.418-15.143c-1.918,0-3.901,0.144-5.895,0.427   c-6.914,0.983-13.511,3.394-21.383,7.883c1.653,0.721,3.463,1.319,5.834,1.724c2.795,0.475,5.762,1.025,8.521,1.826   c4.361,1.266,8.248,3.421,11.884,6.587c6.018,5.241,9.86,9.812,13.261,15.777c3.945,6.921,8.598,13.717,13.098,20.289l0.5,0.731   c10.419,15.22,29.255,24.307,50.386,24.308C228.779,353.67,228.779,353.67,228.781,353.67z M83.893,361.803   c7.554,0,13.02-1.299,18.593-7.939c3.92-4.655,6.712-9.483,9.668-14.594c1.367-2.364,2.781-4.809,4.309-7.221   c6.805-10.74,13.49-17.62,21.674-22.309c2.479-1.42,4.504-2.787,6.188-4.178c2.864-2.366,3.105-3.702,1.174-6.499   c-1.873-2.712-3.56-4.847-8.225-7.629c-0.993-0.593-4.029-1.386-5.773-1.386c-0.237,0-0.362,0.016-0.404,0.022   c-3.387,0.54-4.909,1.009-8.703,2.448c-11.312,4.76-16.644,9.437-21.928,19.224c-1.437,2.661-2.794,5.458-4.106,8.164   c-0.69,1.422-1.38,2.844-2.085,4.257l-0.716,1.439c-1.116,2.246-2.27,4.568-3.501,6.829c-0.64,1.175-1.97,3.618-4.92,3.618   c-1.02,0-1.992-0.3-3.066-0.663c-9.605-3.244-19.768-4.82-31.07-4.82c-9.525,0-19.82,1.14-31.475,3.485l-0.865,0.173   c-4.944,0.987-7.452,1.488-10.488,4.602c0.32,0.023,0.647,0.05,0.986,0.081c0.704,0.066,7.171,0.657,7.823,0.701   c24.762,2.143,42.188,8.376,60.15,21.515l0.195,0.144c0.169,0.125,0.404,0.3,0.565,0.4l1.404,0.041   c1.601,0.048,3.113,0.094,4.594,0.094C83.892,361.803,83.892,361.803,83.893,361.803z M352.051,238.16   c-5.962-15.399-14.835-30.878-27.925-48.71c-9.655-13.152-19.571-27.618-26.694-44.265c-4.062-9.491-5.522-17.732-4.6-25.935   c0.652-5.799,1.202-11.458,0.769-16.934c-0.578-7.296-2.549-12.832-6.155-17.204c-5.771,4.088-10.157,9.838-14.022,18.307   c-6.356,13.926-5.485,28.546,2.739,46.009c8.268,17.552,20.665,32.445,32.79,45.881c24.572,26.162,35.356,39.872,46.753,64.513   c0.962,1.53,2.013,3.018,3.121,4.525C358.093,255.008,355.203,246.304,352.051,238.16z M330.419,90.862   c2.191-12.144,2.384-22.208,0.918-31.619c-3.29-21.106-12.531-36.305-28.251-46.464c-8.005-5.173-17.103-7.582-28.629-7.582   c-3.87,0-7.708,0.286-11.816,0.685c-0.064,0.006-2.706,0.291-3.044,1.165c-0.166,0.429,0.643,1.632,1.277,2.221   c1.357,1.257,3.374,2.206,5.378,3.029c2.935,1.206,8.051,2.291,10.432,2.635c3.523,0.508,8.634,1.669,12.002,2.696   c5.04,1.537,3.208,5.083,1.211,7.128c-3.065,3.137-5.569,4.58-10.02,4.58c-1.812,0-3.745-0.319-6.086-1.005   c-7.58-2.221-15.146-4.833-22.463-7.359l-3.803-1.311c-4.541-1.561-9.228-2.353-13.929-2.353c-2.086,0-5.154,0.117-7.259,0.426   c-3.475,0.509-3.768,1.084-3.715,1.312c0.157,0.674,1.138,2.536,3.188,3.875c4.208,2.75,8.444,4.577,10.75,5.438   c15.792,5.896,13.232,9.562,9.792,11.312c-3.962,2.015-10.583,3.083-20.796,0.806c-7.232-1.613-14.335-4.124-21.275-6.261   c-2.751-0.848-5.502-1.695-8.258-2.526c-4.113-1.241-8.067-1.87-11.753-1.87c-4.235,0-8.168,0.786-12.021,2.403   c-1.82,0.764-2.42,1.453-2.486,1.74c-0.066,0.282,0.161,1.148,1.431,2.611c1.381,1.593,2.992,3.222,4.788,4.844   c9.146,8.26,20.642,13.588,37.271,17.277c18.675,4.143,38.129,4.869,56.942,5.597c7.657,0.296,10.627,1.708,12.977,3.811   c4.825,4.316,17.085,16.646,18.685,18.231c6.143,6.09,13.41,9.05,22.217,9.05C329.103,95.383,329.687,94.921,330.419,90.862z    M301.687,70.338c-2.417-4.25-1.144-4.973,3.125-3.917c3.284,0.813,9.792,4.083,10.625,9.083c0.489,2.935,0.6,4.804-3.085,3.589   C306.77,77.254,303.635,73.765,301.687,70.338z"/><path d="M74.877,14.934H30.015c-8.322,0-15.069,6.747-15.069,15.069v259.863c0,8.322,6.747,15.069,15.069,15.069h44.863   c8.322,0,15.069-6.746,15.069-15.069V30.002C89.946,21.68,83.199,14.934,74.877,14.934z"/><g><path d="M66.157,289.715c1.512-2.952,3.024-7.489,3.024-12.169c0-5.041-2.089-7.705-5.257-7.705    c-3.024,0-4.752,2.305-6.841,8.137c-2.808,8.064-7.272,13.321-14.329,13.321c-8.28,0-14.617-6.912-14.617-18.361    c0-5.473,1.152-9.505,2.448-12.386L39.443,263c-0.936,1.944-2.304,5.4-2.304,10.153c0,4.752,2.16,7.057,4.681,7.057    c3.096,0,4.464-2.736,6.84-9.001c3.169-8.568,7.633-12.601,14.474-12.601c8.137,0,15.05,6.264,15.05,19.585    c0,5.545-1.44,11.018-2.953,13.754L66.157,289.715z" style="fill:#FFCC00;"/><path d="M66.157,218.36c4.608,0,8.353-0.145,11.305-0.288v9.505l-4.968,0.504v0.216    c2.16,1.368,5.76,4.681,5.76,11.017c0,7.129-4.464,12.386-15.337,12.386H42.251v-11.018h18.938c5.112,0,8.209-1.656,8.209-5.472    c0-3.024-2.088-4.753-3.816-5.473c-0.648-0.288-1.512-0.36-2.376-0.36H42.251V218.36H66.157z" style="fill:#FFCC00;"/><path d="M53.485,209.579c-4.393,0-8.137,0.145-11.233,0.288v-9.217l4.753-0.504v-0.216    c-2.232-1.513-5.545-4.608-5.545-10.657c0-4.536,2.305-8.137,5.977-9.648v-0.145c-1.8-1.296-3.24-2.88-4.248-4.536    c-1.152-1.944-1.729-4.104-1.729-6.696c0-6.769,4.753-11.882,15.266-11.882h20.737v10.657H58.309    c-5.112,0-8.064,1.656-8.064,5.185c0,2.521,1.728,4.32,3.816,5.04c0.792,0.288,1.943,0.433,2.808,0.433h20.594v10.657H57.733    c-4.465,0-7.488,1.584-7.488,5.04c0,2.809,2.16,4.465,3.96,5.112c0.864,0.36,1.872,0.433,2.736,0.433h20.521v10.656H53.485z" style="fill:#FFCC00;"/><path d="M77.462,127.644l-3.528,0.648v0.216c2.809,2.304,4.32,5.904,4.32,10.081    c0,7.128-5.185,11.377-10.801,11.377c-9.145,0-13.537-8.209-13.465-20.666h-0.504c-1.872,0-4.537,1.008-4.537,6.408    c0,3.601,1.225,7.417,2.665,9.721l-7.057,2.017c-1.368-2.448-3.097-7.272-3.097-13.682c0-11.736,6.913-15.48,15.193-15.48h12.241    c3.384,0,6.624-0.145,8.568-0.505V127.644z M60.829,128.94c-0.072,5.761,1.296,10.226,5.544,10.226    c2.809,0,4.177-1.873,4.177-4.321c0-2.735-1.801-4.968-4.032-5.688c-0.576-0.144-1.225-0.216-1.872-0.216H60.829z" style="fill:#FFCC00;"/><path d="M32.17,97.98h10.081v-7.849h8.064v7.849h12.745c4.249,0,6.193-1.008,6.193-4.32    c0-1.368-0.145-2.448-0.288-3.24l8.28-0.071c0.576,1.439,0.937,4.032,0.937,7.128c0,3.528-1.225,6.48-3.024,8.209    c-2.089,2.016-5.473,3.024-10.441,3.024H50.316v4.681h-8.064v-4.681h-7.633L32.17,97.98z" style="fill:#FFCC00;"/><path d="M53.844,83.797c-5.185,0-8.568,0.145-11.593,0.288v-9.433l6.48-0.36v-0.288    c-5.112-1.8-7.272-6.12-7.272-9.505c0-1.008,0-1.512,0.145-2.304h10.297c-0.145,0.792-0.288,1.729-0.288,2.952    c0,4.032,2.16,6.769,5.544,7.488c0.72,0.145,1.584,0.217,2.448,0.217h17.857v10.944H53.844z" style="fill:#FFCC00;"/><path d="M77.462,37.211l-3.528,0.648v0.216c2.809,2.304,4.32,5.904,4.32,10.081    c0,7.128-5.185,11.377-10.801,11.377c-9.145,0-13.537-8.209-13.465-20.666h-0.504c-1.872,0-4.537,1.008-4.537,6.408    c0,3.601,1.225,7.417,2.665,9.721l-7.057,2.017c-1.368-2.448-3.097-7.272-3.097-13.682c0-11.736,6.913-15.48,15.193-15.48h12.241    c3.384,0,6.624-0.145,8.568-0.505V37.211z M60.829,38.507c-0.072,5.761,1.296,10.226,5.544,10.226    c2.809,0,4.177-1.873,4.177-4.321c0-2.735-1.801-4.968-4.032-5.688c-0.576-0.144-1.225-0.216-1.872-0.216H60.829z" style="fill:#FFCC00;"/></g></g></svg>